<?xml version="1.0" encoding="utf-8"?><!-- Uploaded to: SVG Repo, www.svgrepo.com, Generator: SVG Repo Mixer Tools -->
<svg fill="#000000" width="800px" height="800px" viewBox="0 0 24 24" id="pillow-2" data-name="Flat Color" xmlns="http://www.w3.org/2000/svg" class="icon flat-color"><path id="primary" d="M21.78,8.13a3,3,0,0,0-.65-3.25,3,3,0,0,0-3.51-.54,47,47,0,0,0-11.24,0,3,3,0,0,0-3.51.54,3,3,0,0,0-.65,3.25,37.08,37.08,0,0,0,0,7.74,3,3,0,0,0,4.16,3.79,47,47,0,0,0,11.24,0,3,3,0,0,0,3.51-.54,3,3,0,0,0,.65-3.25A37.08,37.08,0,0,0,21.78,8.13Z" style="fill: rgb(0, 0, 0);"></path><path id="secondary" d="M17.1,16a1,1,0,0,1-1-.68,10.34,10.34,0,0,1,0-6.64,1,1,0,0,1,1.27-.63,1,1,0,0,1,.63,1.27,8.21,8.21,0,0,0,0,5.36A1,1,0,0,1,17.42,16,1.19,1.19,0,0,1,17.1,16Z" style="fill: rgb(44, 169, 188);"></path></svg>