<?xml version="1.0" ?>
<!-- Uploaded to: SVG Repo, www.svgrepo.com, Generator: SVG Repo Mixer Tools -->
<svg fill="#000000" width="800px" height="800px" viewBox="0 0 128 128" id="Layer_1" version="1.1" xml:space="preserve" xmlns="http://www.w3.org/2000/svg" xmlns:xlink="http://www.w3.org/1999/xlink">
<g>
<path d="M113,11H45v63.5c-3.1-2.2-6.9-3.5-11-3.5c-10.5,0-19,8.5-19,19s8.5,19,19,19s19-8.5,19-19V19h52v45.5   c-3.1-2.2-6.9-3.5-11-3.5c-10.5,0-19,8.5-19,19s8.5,19,19,19s19-8.5,19-19V11z M34,101c-6.1,0-11-4.9-11-11s4.9-11,11-11   s11,4.9,11,11S40.1,101,34,101z M94,91c-6.1,0-11-4.9-11-11s4.9-11,11-11s11,4.9,11,11S100.1,91,94,91z"/>
<rect height="8" width="98" x="15" y="119"/>
</g>
</svg>